/vscmnt/brussel_pixiu_data/_data_brussel/112/vsc11236/PredSimResults/SUBJ11mtu3D/worker5.mot
version=1
nRows=10
nColumns=50
inDegrees=yes
endheader
                time	         pelvis_tilt	         pelvis_list	     pelvis_rotation	           pelvis_tx	           pelvis_ty	           pelvis_tz	       hip_flexion_r	     hip_adduction_r	      hip_rotation_r	        knee_angle_r	       ankle_angle_r	         mtp_angle_r	       hip_flexion_l	     hip_adduction_l	      hip_rotation_l	        knee_angle_l	       ankle_angle_l	         mtp_angle_l	    lumbar_extension	      lumbar_bending	     lumbar_rotation	 ercspn_r/activation	 intobl_r/activation	 extobl_r/activation	    abd_r/activation	    add_r/activation	hamstrings_r/activation	bifemsh_r/activation	glut_max_r/activation	iliopsoas_r/activation	rect_fem_r/activation	  vasti_r/activation	gastroc_r/activation	 soleus_r/activation	tib_ant_r/activation	 ercspn_l/activation	 intobl_l/activation	 extobl_l/activation	    abd_l/activation	    add_l/activation	hamstrings_l/activation	bifemsh_l/activation	glut_max_l/activation	iliopsoas_l/activation	rect_fem_l/activation	  vasti_l/activation	gastroc_l/activation	 soleus_l/activation	tib_ant_l/activation	
          2.02655070	         -6.79001120	          2.03106484	         -5.73186035	          2.22920577	          0.93862393	          0.00736696	        -11.36471442	         -2.99965027	          0.08264631	         -7.86850305	         12.55156132	         25.66454389	         32.79268812	         -0.68565216	         -3.40777375	         -4.22925390	          6.08708759	          0.22750486	        -10.11194365	          1.23575954	         -1.71069158	          0.01000000	          0.01000001	          0.01000004	          0.03112500	          0.00999999	          0.04611023	          0.20231829	          0.02192559	          0.01225174	          0.01000000	          0.01000000	          0.33171201	          0.21163876	          0.00999999	          0.01339082	          0.30657644	          0.11812944	          0.01093007	          0.10047026	          0.09553341	          0.32543465	          0.02422165	          0.11386793	          0.01404657	          0.01000001	          0.02682770	          0.00999999	          0.30870438	
          2.04006104	         -6.80030700	          2.11795511	         -5.83588710	          2.24773558	          0.93618274	          0.00664086	        -12.01068634	         -3.24390728	         -0.20016032	         -8.73550393	         12.08593261	         27.43940176	         32.67276034	         -0.55317341	         -3.89947939	         -5.69801297	          5.57002097	          0.23646307	         -9.79019610	          0.70161087	         -1.57222262	          0.01000001	          0.01003882	          0.02454541	          0.02540459	          0.01459649	          0.06242877	          0.16513457	          0.02253142	          0.01000005	          0.01000001	          0.01000001	          0.30759355	          0.20291528	          0.00999999	          0.01092975	          0.25023130	          0.09641863	          0.01000000	          0.10082473	          0.08792118	          0.26562381	          0.07266127	          0.09294034	          0.01146503	          0.01000000	          0.02750814	          0.01501044	          0.33078657	
          2.05357138	         -6.79413054	          2.21027606	         -5.91998723	          2.26662376	          0.93399576	          0.00586808	        -12.52298881	         -3.49798169	         -0.51349346	         -9.88838114	         11.49331183	         29.29801335	         32.42634460	         -0.42805701	         -4.30654007	         -7.16982617	          4.91772339	          0.21515157	         -9.44282384	          0.14640364	         -1.41876098	          0.01000000	          0.01000001	          0.02003425	          0.02073553	          0.01191383	          0.05095516	          0.13478478	          0.01839041	          0.01000002	          0.01000001	          0.01003141	          0.28012290	          0.18757814	          0.00999999	          0.01000000	          0.20424173	          0.07869802	          0.07409142	          0.09858769	          0.07596095	          0.21680529	          0.12582796	          0.07585900	          0.01000008	          0.00999999	          0.02245247	          0.01225170	          0.40184195	
          2.06708172	         -6.77784205	          2.29582636	         -5.98060232	          2.28547200	          0.93243474	          0.00504065	        -12.75685163	         -3.74870837	         -0.83977993	        -11.51030213	         10.72555561	         31.23554369	         32.14863928	         -0.30336904	         -4.65628613	         -8.54841155	          4.08187162	          0.17443628	         -9.11465707	         -0.41284130	         -1.25737972	          0.03435492	          0.01000001	          0.01635219	          0.01692458	          0.01647989	          0.04159023	          0.11001292	          0.01501047	          0.01000007	          0.01000003	          0.01245533	          0.22863964	          0.15521440	          0.00999999	          0.02282928	          0.16670450	          0.06423425	          0.13522838	          0.12125524	          0.06203206	          0.17695903	          0.15903452	          0.06191700	          0.01000021	          0.01000000	          0.01832597	          0.00999999	          0.44179692	
          2.08059206	         -6.75214230	          2.36769026	         -6.01962380	          2.30402288	          0.93169113	          0.00417684	        -12.61208250	         -3.98999976	         -1.16980379	        -13.74343352	          9.79502595	         33.14626605	         31.96348861	         -0.18500465	         -4.92399464	        -10.13216614	          3.52820911	          0.12087112	         -8.83065951	         -0.96826792	         -1.09174064	          0.08389746	          0.01000001	          0.01334686	          0.01381404	          0.03756729	          0.03394646	          0.08979384	          0.01225172	          0.01000011	          0.01000002	          0.01016619	          0.18661836	          0.12668782	          0.00999999	          0.03277662	          0.13606617	          0.05242875	          0.17966875	          0.16318110	          0.05063130	          0.14443604	          0.18204619	          0.05053738	          0.01000031	          0.01211287	          0.01495788	          0.01000003	          0.45865335	
          2.09410239	         -6.71531543	          2.41753499	         -6.03639113	          2.32220792	          0.93175607	          0.00328998	        -12.03490247	         -4.21541625	         -1.50351045	        -16.67402481	          8.70974433	         34.89913527	         31.85769277	         -0.07787267	         -5.11019592	        -11.90554220	          3.30005118	          0.08647779	         -8.58978571	         -1.50769842	         -0.92515693	          0.10405326	          0.01000001	          0.01089386	          0.01127518	          0.07036952	          0.02770753	          0.07329080	          0.01000000	          0.08921782	          0.01000001	          0.00999999	          0.15232009	          0.10340408	          0.00999999	          0.03059794	          0.11105880	          0.04279296	          0.20620916	          0.20197087	          0.04395042	          0.11789039	          0.18890972	          0.04124921	          0.01000031	          0.02944633	          0.01220881	          0.01359370	          0.44714478	
          2.10761273	         -6.66726865	          2.43467720	         -6.02939644	          2.34003193	          0.93252701	          0.00239959	        -10.99694858	         -4.41745602	         -1.84752043	        -20.34550127	          7.51447538	         36.21327805	         31.71928830	          0.01796976	         -5.21472075	        -13.63351273	          3.20716156	          0.06534891	         -8.38310320	         -2.01760886	         -0.76098702	          0.11382405	          0.01000002	          0.01000001	          0.00999999	          0.10130747	          0.02261524	          0.05982089	          0.00999999	          0.11093544	          0.01000000	          0.00999999	          0.12432545	          0.08439962	          0.03093754	          0.02497441	          0.09064750	          0.03492811	          0.21823915	          0.21392604	          0.04140018	          0.09622353	          0.18956079	          0.03366809	          0.01000023	          0.07451156	          0.01053486	          0.01501043	          0.43232541	
          2.12112307	         -6.60985797	          2.40898602	         -5.99357112	          2.35749500	          0.93390850	          0.00153884	         -9.50069747	         -4.59292327	         -2.23662545	        -24.77362251	          6.44485862	         36.38065607	         31.41846911	          0.10410071	         -5.23685111	        -15.07150797	          3.16388445	          0.05210722	         -8.20437242	         -2.48826506	         -0.60524687	          0.10651105	          0.01000001	          0.02869997	          0.00999999	          0.12448864	          0.01845886	          0.05617821	          0.00999999	          0.09054689	          0.01000000	          0.00999999	          0.10147589	          0.06888796	          0.06778615	          0.02038442	          0.07398756	          0.02850874	          0.20707707	          0.20414964	          0.04638701	          0.07853878	          0.17295390	          0.02748029	          0.01000016	          0.13147428	          0.01088059	          0.01225172	          0.42084401	
          2.13463341	         -6.54674911	          2.33101247	         -5.91886449	          2.37456374	          0.93581844	          0.00072786	         -7.58270579	         -4.74061566	         -2.66886442	        -29.85910174	          5.44665465	         35.24451588	         30.88599812	          0.17605137	         -5.18836284	        -16.08734677	          3.14704937	          0.04327548	         -8.05593369	         -2.91020827	         -0.46300532	          0.08693560	          0.01000000	          0.08628633	          0.00999999	          0.14449577	          0.01506637	          0.05304322	          0.00999999	          0.07390546	          0.01000000	          0.00999999	          0.08282581	          0.05622716	          0.12289899	          0.01663802	          0.06038952	          0.02326917	          0.17836260	          0.18405801	          0.05118694	          0.06410428	          0.14165082	          0.02242973	          0.01000009	          0.19568986	          0.01000001	          0.01000001	          0.41270387	
          2.14814375	         -6.48242063	          2.19852864	         -5.79613921	          2.39114374	          0.93816554	         -0.00003923	         -5.31375274	         -4.85938709	         -3.11322335	        -35.39752503	          4.44182869	         32.81488593	         30.13531282	          0.22917175	         -5.07344856	        -16.69223228	          3.18937660	          0.03551878	         -7.95229913	         -3.27789412	         -0.33210103	          0.08657810	          0.04181961	          0.12785652	          0.00999999	          0.12677952	          0.01229739	          0.04329459	          0.00999999	          0.06032251	          0.01000000	          0.00999999	          0.06760340	          0.04589327	          0.17881512	          0.01358015	          0.04929064	          0.01899257	          0.16056384	          0.15023033	          0.05257778	          0.05232267	          0.11561707	          0.01830741	          0.01000008	          0.22163699	          0.01000000	          0.01000000	          0.39663047	
